M48
; DRILL file {KiCad 8.0.9-1.fc41} date 2026-08-15T01:31:34+0300
; FORMAT={-:-/ absolute / metric / decimal}
; #@! TF.CreationDate,2026-08-15T01:31:34+03:00
; #@! TF.GenerationSoftware,Kicad,Pcbnew,8.0.9-1.fc41
; #@! TF.FileFunction,MixedPlating,1,2
FMAT,2
METRIC
; #@! TA.AperFunction,Plated,PTH,ComponentDrill
T1C0.760
; #@! TA.AperFunction,Plated,PTH,ComponentDrill
T2C0.800
; #@! TA.AperFunction,Plated,PTH,ComponentDrill
T3C0.900
; #@! TA.AperFunction,Plated,PTH,ComponentDrill
T4C1.100
; #@! TA.AperFunction,Plated,PTH,ComponentDrill
T5C1.200
; #@! TA.AperFunction,Plated,PTH,ComponentDrill
T6C1.400
; #@! TA.AperFunction,NonPlated,NPTH,ComponentDrill
T7C3.200
; #@! TA.AperFunction,NonPlated,NPTH,ComponentDrill
T8C3.500
%
G90
G05
T1
X10.727Y-206.45
X11.997Y-203.91
X13.268Y-206.45
X14.537Y-203.91
X15.807Y-206.45
X17.078Y-203.91
X18.348Y-206.45
X19.617Y-203.91
T2
X13.08Y-33.92
X13.08Y-39.97
X13.08Y-47.76
X13.08Y-71.66
X13.08Y-88.71
X13.08Y-94.76
X13.13Y-12.575
X13.13Y-15.115
X13.13Y-17.655
X13.13Y-20.195
X13.13Y-22.735
X13.13Y-25.275
X13.13Y-27.815
X13.13Y-118.715
X13.13Y-121.255
X13.13Y-123.795
X13.13Y-126.335
X13.13Y-128.875
X13.13Y-131.415
X13.13Y-133.955
X13.13Y-136.495
X13.442Y-78.915
X13.442Y-81.455
X14.308Y-144.47
X14.308Y-168.47
X16.808Y-144.47
X16.808Y-168.47
X20.75Y-12.575
X20.75Y-15.115
X20.75Y-17.655
X20.75Y-20.195
X20.75Y-22.735
X20.75Y-25.275
X20.75Y-27.815
X20.75Y-118.715
X20.75Y-121.255
X20.75Y-123.795
X20.75Y-126.335
X20.75Y-128.875
X20.75Y-131.415
X20.75Y-133.955
X20.75Y-136.495
X21.062Y-78.915
X21.062Y-81.455
X23.06Y-142.56
X23.06Y-166.57
X23.24Y-33.92
X23.24Y-39.97
X23.24Y-47.76
X23.24Y-71.66
X23.24Y-88.71
X23.24Y-94.76
X25.93Y-12.53
X25.93Y-118.66
X26.49Y-77.71
X28.06Y-142.56
X28.06Y-166.57
X28.39Y-33.92
X28.39Y-39.97
X28.39Y-71.66
X28.39Y-88.71
X28.41Y-47.785
X28.41Y-50.325
X28.41Y-52.865
X28.41Y-55.405
X28.41Y-57.945
X28.41Y-60.485
X28.41Y-63.025
X28.41Y-65.565
X28.43Y-94.815
X28.43Y-97.355
X28.43Y-99.895
X28.43Y-102.435
X28.43Y-104.975
X28.43Y-107.515
X28.43Y-110.055
X28.43Y-112.595
X30.93Y-118.66
X34.448Y-168.47
X36.03Y-47.785
X36.03Y-50.325
X36.03Y-52.865
X36.03Y-55.405
X36.03Y-57.945
X36.03Y-60.485
X36.03Y-63.025
X36.03Y-65.565
X36.05Y-94.815
X36.05Y-97.355
X36.05Y-99.895
X36.05Y-102.435
X36.05Y-104.975
X36.05Y-107.515
X36.05Y-110.055
X36.05Y-112.595
X36.09Y-12.53
X36.65Y-77.71
X36.948Y-168.47
X38.55Y-33.92
X38.55Y-39.97
X38.55Y-71.66
X38.55Y-88.71
X41.24Y-94.76
X43.2Y-166.57
X43.66Y-41.2
X46.2Y-41.2
X46.24Y-94.76
X48.2Y-166.57
X48.74Y-41.2
X54.58Y-38.98
X54.58Y-45.02
X54.58Y-51.07
X54.58Y-57.12
X54.58Y-63.17
X54.58Y-84.57
X54.58Y-90.62
X54.58Y-96.67
X54.58Y-102.72
X54.58Y-108.77
X54.58Y-114.57
X54.58Y-120.87
X54.58Y-126.92
X54.58Y-132.97
X54.58Y-138.77
X54.58Y-145.07
X54.58Y-151.12
X54.58Y-157.18
X54.58Y-163.23
X54.58Y-183.03
X54.58Y-189.08
X54.58Y-195.13
X54.62Y-169.33
X54.62Y-171.87
X54.62Y-174.41
X54.62Y-176.95
X54.942Y-13.72
X54.942Y-16.26
X54.942Y-18.8
X54.942Y-21.34
X54.942Y-23.88
X54.942Y-26.42
X54.942Y-28.96
X54.942Y-31.5
X59.58Y-189.08
X62.24Y-169.33
X62.24Y-171.87
X62.24Y-174.41
X62.24Y-176.95
X62.562Y-13.72
X62.562Y-16.26
X62.562Y-18.8
X62.562Y-21.34
X62.562Y-23.88
X62.562Y-26.42
X62.562Y-28.96
X62.562Y-31.5
X64.72Y-188.83
X64.74Y-38.98
X64.74Y-45.02
X64.74Y-51.07
X64.74Y-57.12
X64.74Y-63.17
X64.74Y-84.57
X64.74Y-90.62
X64.74Y-96.67
X64.74Y-102.72
X64.74Y-108.77
X64.74Y-114.57
X64.74Y-120.87
X64.74Y-126.92
X64.74Y-132.97
X64.74Y-138.77
X64.74Y-145.07
X64.74Y-151.12
X64.74Y-157.18
X64.74Y-163.23
X64.74Y-183.03
X64.74Y-195.13
X67.42Y-169.28
X69.46Y-13.72
X69.89Y-38.98
X69.89Y-45.02
X69.89Y-51.07
X69.89Y-57.12
X69.89Y-84.57
X69.89Y-90.62
X69.89Y-96.67
X69.89Y-102.72
X69.89Y-108.77
X69.89Y-114.57
X69.89Y-120.87
X69.89Y-126.92
X69.89Y-132.72
X69.89Y-139.02
X69.89Y-145.07
X69.89Y-151.12
X69.89Y-157.18
X69.89Y-163.23
X69.89Y-183.03
X69.89Y-195.13
X69.93Y-63.225
X69.93Y-65.765
X69.93Y-68.305
X69.93Y-70.845
X69.93Y-73.385
X69.93Y-75.925
X69.93Y-78.465
X72.0Y-13.72
X74.54Y-13.72
X74.88Y-188.83
X74.89Y-139.02
X74.89Y-183.03
X77.55Y-63.225
X77.55Y-65.765
X77.55Y-68.305
X77.55Y-70.845
X77.55Y-73.385
X77.55Y-75.925
X77.55Y-78.465
X77.58Y-169.28
X80.03Y-189.08
X80.04Y-139.02
X80.04Y-183.03
X80.05Y-38.98
X80.05Y-45.02
X80.05Y-51.07
X80.05Y-57.12
X80.05Y-84.57
X80.05Y-90.62
X80.05Y-96.67
X80.05Y-102.72
X80.05Y-108.77
X80.05Y-114.57
X80.05Y-120.87
X80.05Y-126.92
X80.05Y-132.72
X80.05Y-145.07
X80.05Y-151.12
X80.05Y-157.18
X80.05Y-163.23
X80.05Y-195.13
X81.19Y-12.58
X81.19Y-15.12
X81.19Y-17.66
X81.19Y-20.2
X81.19Y-22.74
X81.19Y-25.28
X81.19Y-27.82
X81.19Y-30.36
X81.19Y-32.9
X85.03Y-189.08
X85.04Y-183.03
X85.2Y-114.82
X88.81Y-12.58
X88.81Y-15.12
X88.81Y-17.66
X88.81Y-20.2
X88.81Y-22.74
X88.81Y-25.28
X88.81Y-27.82
X88.81Y-30.36
X88.81Y-32.9
X90.2Y-114.82
X90.2Y-139.02
X98.5Y-15.68
X98.5Y-25.84
X98.5Y-28.74
X98.5Y-38.9
X98.5Y-41.8
X98.5Y-51.96
X98.5Y-54.85
X98.5Y-65.01
X98.5Y-67.91
X98.5Y-78.07
X98.5Y-80.97
X98.5Y-91.13
X98.5Y-94.02
X98.5Y-104.18
X98.5Y-107.08
X98.5Y-117.24
X98.5Y-120.14
X98.5Y-130.3
X98.5Y-133.19
X98.5Y-143.35
T3
X6.725Y-156.8
X6.725Y-169.86
X6.725Y-182.92
X9.265Y-156.8
X9.265Y-169.86
X9.265Y-182.92
X103.725Y-20.76
X103.725Y-33.82
X103.725Y-46.88
X103.725Y-59.93
X103.725Y-72.99
X103.725Y-86.05
X103.725Y-99.1
X103.725Y-112.16
X103.725Y-125.22
X103.725Y-138.27
X103.725Y-156.8
X103.725Y-169.86
X103.725Y-182.92
X106.265Y-20.76
X106.265Y-33.82
X106.265Y-46.88
X106.265Y-59.93
X106.265Y-72.99
X106.265Y-86.05
X106.265Y-99.1
X106.265Y-112.16
X106.265Y-125.22
X106.265Y-138.27
X106.265Y-156.8
X106.265Y-169.86
X106.265Y-182.92
T4
X34.87Y-160.77
X36.37Y-118.76
X37.41Y-160.77
X39.95Y-160.77
X46.53Y-118.76
T5
X55.805Y-212.417
X59.305Y-212.417
X62.805Y-212.417
X66.305Y-212.417
X75.365Y-212.417
X78.865Y-212.417
X82.365Y-212.417
X85.865Y-212.417
X89.365Y-212.417
X92.865Y-212.417
X96.365Y-212.417
X99.865Y-212.417
X103.365Y-212.417
T6
X30.41Y-210.412
X35.49Y-210.412
X40.57Y-210.412
X45.65Y-210.412
T7
X5.0Y-5.0
X5.0Y-196.65
X9.457Y-212.8
X20.887Y-212.8
X108.0Y-5.0
X108.0Y-196.65
T8
X37.41Y-144.11
M30
